<!-- Generated by IcoMoon.io -->
<svg version="1.1" xmlns="http://www.w3.org/2000/svg" width="1024" height="1024" viewBox="0 0 1024 1024">
<title></title>
<g id="icomoon-ignore">
</g>
<path fill="#000" d="M150.955 0c-58.539 0-80.128 21.589-80.128 80.128v706.773c0 6.613 0.299 12.757 0.811 18.389 1.451 12.885 1.579 25.301 13.525 39.339 1.109 1.621 13.227 10.496 13.227 10.496 6.443 3.243 10.965 5.461 18.347 8.533l355.584 148.992c18.389 8.405 26.155 11.776 39.509 11.307h0.171c13.525 0.469 21.291-2.901 39.68-11.307l355.541-148.992c7.424-3.072 11.776-5.291 18.389-8.533 0 0 12.117-9.045 13.227-10.496 11.947-14.037 12.075-26.453 13.525-39.339 0.512-5.632 0.853-11.776 0.853-18.347v-706.859c-0.043-58.496-21.675-80.085-80.213-80.085zM720.811 132.693h29.013c48.384 0 71.936 23.552 71.936 72.405v80.171h-58.539v-76.928c0-15.659-7.253-22.912-22.4-22.912h-9.984c-15.659 0-22.912 7.253-22.912 22.912v248.021c0 15.616 7.253 22.869 22.912 22.869h11.093c15.019 0 22.272-7.253 22.272-22.869v-88.747h58.709v91.477c0 48.853-24.064 72.875-72.576 72.875h-29.525c-48.683 0-72.533-24.192-72.533-72.875v-253.483c0-48.725 23.851-72.917 72.533-72.917zM200.789 135.936h132.864v54.485h-73.216v111.104h70.485v54.357h-70.485v118.357h74.197v54.357h-133.845zM363.648 135.936h93.696c48.512 0 72.533 24.192 72.533 73.045v104.32c0 48.853-24.021 72.917-72.533 72.917h-33.877v142.379h-59.819zM556.843 135.936h59.648v392.661h-59.648zM423.296 188.843v144.64h24.704c14.976 0 22.229-7.253 22.229-23.040v-98.56c0-15.787-7.253-23.040-22.229-23.040zM258.816 622.080h8.875l1.963 0.299h3.2l1.621 0.512h1.621l1.621 0.469 1.579 0.341 1.451 0.299 1.451 0.341 1.451 0.299 1.621 0.512 1.28 0.299 1.28 0.512 1.621 0.469 1.28 0.64 1.664 0.64 1.451 0.64 1.28 0.853 1.621 0.597 1.109 0.853 1.621 0.768 1.28 0.853 1.451 0.768 1.28 0.981 1.28 0.811 1.28 0.939 1.323 0.981 1.28 1.109 1.28 0.981-0.939 1.28-1.152 1.152-0.939 1.28-1.152 1.28-0.939 1.152-0.981 1.109-1.152 1.28-0.939 1.28-0.981 1.152-1.109 1.28-0.981 1.28-1.152 1.28-0.939 1.152-0.981 1.28-1.109 1.28-0.981 1.323-1.109 1.109-0.981 1.28-1.28-0.939-1.28-1.109-1.28-0.853-1.493-0.939-1.109-0.811-1.451-0.811-1.28-0.811-1.493-0.811-2.56-1.28-1.28-0.469-1.451-0.512-1.621-0.427-1.28-0.341-3.243-0.683-1.621-0.128h-1.749l-1.963-0.341h-3.2l-1.621 0.171h-1.621l-1.621 0.469-1.451 0.341-1.451 0.469-1.579 0.469-1.28 0.64-1.621 0.683-2.432 1.621-1.28 0.768-1.152 0.981-1.109 0.981-1.152 0.939-0.939 1.152-1.28 1.109-1.621 2.432-0.981 1.28-0.64 1.451-0.853 1.28-0.768 1.451-0.469 1.451-0.683 1.451-0.427 1.621-0.213 1.621-0.469 1.451-0.341 1.792v1.579l-0.299 1.621v3.84l0.171 1.664 0.128 1.451 0.171 1.579 0.341 1.621 0.469 1.28 0.171 1.621 0.469 1.28 0.512 1.28 0.64 1.664 0.811 1.579 0.64 1.28 0.811 1.28 0.939 1.323 0.981 1.28 0.811 1.152 1.28 1.109 0.981 1.152 1.109 0.939 2.56 1.963 1.323 0.811 1.28 0.768 1.451 0.683 1.621 0.64 1.28 0.64 1.621 0.469 1.621 0.512 1.621 0.299 1.579 0.341 1.621 0.171 1.963 0.128h5.291l1.963-0.299h1.579l1.621-0.512 1.621-0.299 1.621-0.512 1.451-0.299 1.451-0.64 1.28-0.64 1.621-0.683 0.981-0.64 1.28-0.811v-14.805h-23.552v-23.893h53.205v53.248l-1.109 0.939-1.28 0.981-1.152 0.811-1.28 0.981-1.28 0.768-1.28 0.981-1.28 0.811-1.323 0.811-1.621 0.811-1.451 0.811-1.28 0.811-1.621 0.64-1.28 0.811-4.864 1.92-1.451 0.64-1.451 0.469-1.451 0.512-1.579 0.469-1.451 0.469-1.621 0.512-1.451 0.299-3.243 0.683-1.621 0.299-1.579 0.171-3.243 0.341-1.92 0.128-1.621 0.171-1.792 0.171h-8.363l-1.792-0.341h-1.621l-1.579-0.299h-1.621l-1.621-0.512-1.621-0.299-1.621-0.341-1.579-0.299-1.28-0.512-1.621-0.299-1.621-0.512-1.451-0.64-1.451-0.469-1.621-0.64-1.451-0.64-1.621-0.64-1.28-0.683-1.621-0.768-1.109-0.853-1.621-0.768-1.152-0.853-1.28-0.768-2.56-1.963-1.451-0.939-0.981-0.981-1.28-0.981-1.152-1.109-1.109-0.981-1.152-1.109-0.939-1.152-1.152-1.109-0.939-1.28-0.981-1.152-0.811-1.28-0.981-1.28-0.811-1.28-0.768-1.28-0.853-1.493-0.768-1.28-1.28-2.901-0.683-1.451-0.64-1.451-0.469-1.28-0.64-1.451-0.341-1.451-0.469-1.451-0.341-1.621-0.469-1.451-0.341-1.621-0.128-1.451-0.341-1.621-0.171-1.451-0.128-1.621-0.171-1.579-0.171-1.621v-8.875l0.341-1.621v-1.749l0.427-1.621v-1.621l0.512-1.621 0.512-1.579 0.299-1.621 0.469-1.451 0.512-1.621 0.469-1.451 0.64-1.621 0.64-1.451 0.683-1.451 1.28-2.901 0.811-1.451 0.811-1.28 0.768-1.28 0.853-1.28 0.768-1.28 0.981-1.323 0.981-1.28 0.939-1.28 1.152-1.152 0.939-1.109 0.981-1.152 1.28-1.109 0.981-1.152 1.28-0.981 1.152-1.109 1.28-0.981 1.28-0.939 1.28-0.853 1.28-0.939 1.28-0.811 1.323-0.811 1.451-0.811 1.621-0.811 1.28-0.768 1.621-0.683 1.451-0.64 1.621-0.811 1.28-0.427 1.621-0.512 1.451-0.64 1.451-0.341 1.451-0.469 1.621-0.341 1.451-0.469 1.579-0.341h1.621l1.621-0.469h1.621l1.621-0.341h1.579zM770.347 622.379h8.832l1.963 0.341h3.2l1.621 0.469h1.92l1.621 0.512 1.451 0.299 1.621 0.341 1.621 0.299 1.451 0.341 1.621 0.469 1.579 0.512 1.28 0.299 1.621 0.64 1.621 0.512 1.28 0.64 3.243 1.28 1.451 0.853 1.152 0.597 1.579 0.853 1.451 0.768 1.28 0.811 1.493 0.981 1.28 0.768 2.56 1.963 1.28 0.939-0.939 1.28-0.811 1.323-0.981 1.28-0.939 1.28-0.981 1.451-0.811 1.28-0.981 1.28-0.939 1.323-0.853 1.28-0.939 1.28-0.981 1.28-0.939 1.323-0.853 1.451-0.939 1.28-1.109 1.28-0.853 1.28-0.939 1.323-1.28-0.981-1.451-0.811-1.28-0.768-1.28-0.981-1.493-0.64-1.28-0.853-1.621-0.597-1.109-0.64-1.621-0.683-1.28-0.64-1.28-0.469-1.451-0.64-1.621-0.469-1.621-0.512-1.621-0.469-1.749-0.341-1.621-0.299-1.621-0.341-1.621-0.171-1.579-0.171-1.451-0.128h-3.584l-1.749 0.299-1.621 0.341-1.621 0.299-1.28 0.683-1.109 0.64-1.451 1.28-0.981 1.451-0.64 1.451v4.011l0.811 1.792 0.64 0.981 1.109 1.109 1.621 0.853 1.28 0.768 3.243 1.28 2.091 0.64 1.28 0.341 1.28 0.469 1.621 0.341 1.28 0.469 1.621 0.341 1.792 0.469 1.749 0.469 1.792 0.512 1.792 0.299 1.579 0.512 1.792 0.469 1.621 0.341 1.579 0.469 1.621 0.469 1.621 0.512 1.621 0.469 1.451 0.469 1.621 0.512 1.579 0.64 1.621 0.811 1.621 0.64 3.243 1.621 1.28 0.811 1.28 0.768 1.451 0.981 1.152 0.853 1.451 1.109 3.541 3.541 0.811 1.28 1.109 1.621 0.811 1.109 0.64 1.621 0.811 1.109 0.469 1.621 0.512 1.28 0.299 1.621 0.341 1.621 0.299 1.621 0.171 1.621 0.171 1.579v4.053l-0.171 1.749-0.171 1.621-0.128 1.792-0.341 1.621-0.469 1.579-0.341 1.621-0.469 1.621-0.64 1.451-0.64 1.28-0.683 1.451-0.768 1.28-0.981 1.28-0.853 1.28-0.768 1.323-1.109 1.152-0.981 1.109-1.152 0.981-1.28 1.109-1.109 0.981-1.28 0.981-1.28 0.768-1.323 0.981-2.901 1.451-1.621 0.853-1.621 0.597-1.579 0.64-1.621 0.512-1.621 0.469-1.28 0.469-3.243 0.683-1.28 0.299-1.621 0.341h-1.621l-1.579 0.299h-1.621l-1.621 0.341h-11.947l-1.579-0.171-1.621-0.171-1.792-0.128-1.621-0.341-1.579-0.171-1.621-0.299-1.621-0.341-1.792-0.469-1.579-0.341-1.621-0.469-1.621-0.341-1.621-0.469-1.579-0.512-1.621-0.64-1.451-0.469-1.621-0.469-1.621-0.683-1.28-0.64-1.621-0.64-1.28-0.811-1.621-0.64-1.451-0.811-1.109-0.811-1.621-0.811-1.152-0.768-1.451-0.853-1.28-0.939-1.28-0.981-1.28-0.939-1.28-0.981-1.152-0.981-1.28-1.109 0.939-1.28 1.152-1.152 0.981-1.28 1.109-1.28 0.981-1.152 0.939-1.28 1.152-1.28 0.981-1.152 1.109-1.28 0.981-1.109 1.109-1.28 0.981-1.28 0.939-1.152 1.152-1.28 0.981-1.28 1.109-1.152 1.152-1.28 1.109 0.939 1.621 0.981 1.109 0.981 1.621 0.939 1.28 0.853 1.451 0.939 1.28 0.811 1.493 0.64 1.28 0.811 1.451 0.64 1.621 0.64 1.28 0.64 1.621 0.469 1.28 0.683 1.621 0.427 1.579 0.512 1.621 0.512 1.621 0.299 1.621 0.341 1.621 0.299h1.749l1.621 0.512h8.875l1.621-0.341 1.579-0.341 1.28-0.299 1.28-0.469 1.152-0.683 1.451-0.939 0.853-1.152 0.768-1.28 0.469-1.621v-3.712l-0.64-1.579-0.939-1.28-0.981-0.981-1.451-0.981-1.152-0.64-1.579-0.64-1.621-0.64-1.92-0.853-1.152-0.299-1.28-0.341-1.621-0.427-1.28-0.341-1.621-0.512-1.621-0.299-1.749-0.512-1.621-0.299-1.792-0.512-1.579-0.299-1.621-0.512-1.621-0.299-1.621-0.512-1.621-0.427-1.579-0.341-1.451-0.512-1.451-0.469-1.451-0.512-1.621-0.64-1.792-0.64-1.621-0.64-1.579-0.64-3.243-1.621-1.109-0.811-1.621-0.811-1.152-0.939-1.451-0.853-0.939-0.939-1.152-1.109-1.28-1.152-0.981-1.109-0.939-1.152-0.853-1.109-0.768-1.28-0.853-1.451-0.597-1.152-0.512-1.28-0.469-1.451-0.469-1.28-0.341-1.621-0.299-1.451v-1.621l-0.341-1.621v-6.912l0.341-3.243 0.299-1.28 0.341-1.621 0.469-1.28 0.341-1.621 0.64-1.28 0.64-1.621 1.451-2.901 0.811-1.28 1.109-1.28 0.853-1.28 1.28-1.28 1.109-1.152 0.981-1.28 1.451-1.152 0.939-0.811 1.451-0.981 1.28-0.939 1.28-0.853 1.621-0.768 1.28-0.64 1.664-0.811 1.28-0.64 1.621-0.512 1.579-0.64 1.621-0.469 1.152-0.341 1.579-0.299 1.28-0.341 1.621-0.299 1.621-0.341 3.243-0.341 1.621-0.128zM376.235 623.531h30.165l1.92 4.352 0.469 1.621 1.28 2.901 0.683 1.451 0.64 1.451 0.469 1.451 0.811 1.579 0.64 1.451 0.64 1.493 0.341 1.451 0.64 1.451 0.811 1.451 0.64 1.579 0.64 1.451 0.469 1.451 0.64 1.451 0.853 1.451 0.427 1.451 0.683 1.621 0.469 1.621 0.64 1.28 0.853 1.621 0.597 1.28 0.64 1.621 0.512 1.621 0.469 1.28 1.451 2.901 0.64 1.621 0.469 1.28 0.683 1.621 0.811 1.621 0.64 1.451 0.939 2.901 0.64 1.451 0.853 1.451 0.597 1.579 0.683 1.493 0.427 1.451 0.683 1.451 1.28 2.901 0.64 1.579 0.512 1.451 0.64 1.451 0.811 1.451 1.28 2.901 0.341 1.621 0.64 1.451 0.811 1.451 0.64 1.451 0.469 1.451 0.64 1.451 0.64 1.621 0.853 1.621 0.427 1.28 0.683 1.621 0.469 1.28 0.64 1.621 1.451 2.901 0.469 1.621 0.683 1.28 0.469 1.621 0.811 1.28 0.64 1.621 0.469 1.621 0.64 1.28 0.683 1.621 0.768 1.28 0.683 1.621 0.427 1.579 0.512 1.28 0.64 1.621 0.853 1.28h-33.408l-0.853-1.408-0.427-1.451-0.683-1.451-0.64-1.621-0.469-1.451-1.28-2.901-0.512-1.451-1.28-2.901-0.469-1.451-0.64-1.621-0.64-1.451-0.512-1.451-0.64-1.451h-46.293l-0.64 1.621-0.469 1.28-0.64 1.621-0.811 1.579-0.341 1.28-0.64 1.664-0.64 1.28-0.469 1.621-0.64 1.28-0.64 1.621-0.512 1.28-0.64 1.621-0.64 1.579-0.64 1.28-0.469 1.621h-33.067l0.64-1.579 1.28-2.901 0.512-1.621 0.427-1.451 0.853-1.451 1.28-2.901 0.469-1.451 0.64-1.621 0.853-1.451 0.597-1.451 0.512-1.451 0.469-1.451 0.64-1.451 0.853-1.621 0.597-1.451 0.64-1.451 0.512-1.451 1.28-2.901 1.28-3.243 0.512-1.28 0.64-1.621 0.811-1.28 0.64-1.621 0.469-1.579 0.469-1.28 0.64-1.621 0.853-1.28 0.597-1.621 0.683-1.28 0.427-1.621 0.683-1.621 0.811-1.28 0.469-1.621 0.64-1.28 0.512-1.621 0.64-1.621 0.811-1.28 0.64-1.621 0.469-1.28 0.64-1.621 0.512-1.28 0.811-1.621 0.64-1.621 0.64-1.451 0.469-1.451 0.64-1.451 0.853-1.451 0.597-1.451 0.341-1.621 1.28-2.901 0.811-1.451 0.64-1.451 0.469-1.451 0.683-1.621 0.64-1.579 0.64-1.28 0.64-1.621 0.469-1.28 1.28-3.243 0.853-1.28 0.597-1.621 0.512-1.28 0.469-1.621 0.64-1.28 0.853-1.621 0.597-1.621 0.512-1.28 0.64-1.621 1.451-2.901 0.469-1.621 0.469-1.28 0.683-1.621zM469.76 624.341h33.067l0.939 1.28 0.853 1.451 0.939 1.28 0.811 1.451 0.811 1.28 0.811 1.451 0.768 1.28 0.981 1.493 1.621 2.56 0.811 1.451 0.811 1.28 1.109 1.451 0.64 1.28 0.853 1.493 0.939 1.28 0.981 1.28 0.64 1.451 0.939 1.28 0.853 1.451 0.597 1.28 1.152 1.493 0.811 1.28 0.811 1.451 0.811 1.28 0.768 1.28 0.981 1.451 0.811 1.28 0.811 1.493 0.811 1.28 0.811 1.451 0.939 1.28 0.853 1.451 0.768 1.28 0.981-1.28 0.64-1.621 0.981-1.109 0.939-1.621 0.853-1.109 0.597-1.621 1.152-1.152 0.811-1.579 0.64-1.152 0.981-1.28 0.939-1.621 0.853-1.109 0.768-1.621 0.811-1.152 0.981-1.579 0.768-1.152 0.853-1.621 0.768-1.109 0.853-1.28 0.939-1.621 0.811-1.152 0.811-1.579 0.939-1.152 0.853-1.621 0.768-1.109 0.981-1.28 0.811-1.621 0.939-1.152 0.853-1.579 0.768-1.152 0.853-1.621 0.939-1.109 0.811-1.621 0.811-1.109h33.365v118.997h-31.317v-69.973l-0.768 1.109-0.981 1.621-0.811 1.109-0.981 1.28-0.811 1.621-0.939 1.152-0.853 1.28-0.939 1.621-0.811 1.109-0.811 1.28-1.109 1.28-0.811 1.664-0.981 1.109-0.811 1.28-0.768 1.621-0.981 1.109-0.811 1.28-0.981 1.621-0.811 1.152-0.939 1.28-0.853 1.621-0.768 1.109-0.981 1.28-0.811 1.621-0.939 1.152-0.981 1.28-0.811 1.28-0.811 1.621-0.981 1.152-0.939 1.28-0.64 1.621-1.152 1.109-0.811 1.28-0.939 1.621-0.853 1.152h-0.597l-0.981-1.451-0.811-1.28-0.981-1.493-0.811-1.28-0.939-1.451-0.853-1.28-0.939-1.451-0.811-1.28-0.939-1.451-0.853-1.28-1.109-1.493-0.64-1.28-0.981-1.451-0.939-1.28-0.853-1.451-0.939-1.28-0.811-1.621-0.939-1.28-0.853-1.451-0.939-1.28-0.811-1.493-0.981-1.28-0.768-1.451-0.981-1.28-0.811-1.451-0.981-1.28-0.811-1.451-0.939-1.28-0.853-1.493-0.939-1.28-0.811-1.451-1.109-1.28-0.64-1.451-0.981-1.28v70.144h-30.933v-117.76zM617.813 624.341h93.824v26.88h-62.72v19.072h56.405v25.301h-56.363v20.48h63.531v26.923h-94.507zM390.912 660.779l-0.64 1.621-0.512 1.28-0.64 1.621-0.64 1.579-0.469 1.451-0.64 1.451-0.683 1.621-0.64 1.621-0.469 1.28-0.64 1.621-0.64 1.28-0.512 1.621-0.64 1.621-0.64 1.28-0.469 1.621-0.64 1.28-0.64 1.621-0.683 1.621-0.427 1.28-0.683 1.621-0.64 1.621-0.469 1.28-0.683 1.621h27.435l-0.64-1.621-0.512-1.451-0.64-1.621-0.64-1.451-0.469-1.451-0.64-1.451-0.64-1.621-0.512-1.451-1.28-2.901-0.469-1.451-0.64-1.621-0.512-1.451-1.28-2.901-0.469-1.451-0.64-1.579-0.64-1.621-0.512-1.28-1.28-3.243-0.469-1.451zM341.845 883.627h341.888l-174.507 57.6z"></path>
</svg>
